<svg xmlns="http://www.w3.org/2000/svg" width="217.312" height="115" viewBox="0 0 217.312 115">
  <g id="Group_24" data-name="Group 24" transform="translate(-1654 -45)">
    <path id="Path_159" data-name="Path 159" d="M141.882,160q-.008-5.342-.016-10.683c0-4.464.005-8.928-.008-13.393,0-.377.065-.51.483-.509q8.754.022,17.507,0c.365,0,.489.06.481.461-.03,1.431-.026,2.863,0,4.295.006.374-.074.485-.47.483-2.95-.018-5.9,0-8.85-.016-.383,0-.527.063-.514.49.034,1.124.026,2.249,0,3.373-.008.366.1.448.458.446,2.679-.016,5.358,0,8.037-.021.43,0,.53.108.521.528q-.045,2.07,0,4.142c.008.414-.079.544-.519.54-2.555-.024-5.111-.012-7.667-.013-.821,0-.821,0-.821.793,0,1.108.022,2.217-.008,3.323-.012.432.072.572.545.568,2.968-.026,5.937,0,8.9-.024.419,0,.549.1.54.524-.029,1.362-.016,2.724-.014,4.087a1.391,1.391,0,0,0,.052.6Z" transform="translate(1571.822 0)" fill="#fff"/>
    <path id="Path_160" data-name="Path 160" d="M270,160q-.009-5.161-.017-10.323c0-4.565.008-9.13-.013-13.7,0-.478.141-.568.585-.567q8.445.022,16.89,0c.408,0,.55.072.538.522-.036,1.412-.029,2.826,0,4.238.007.389-.1.482-.479.48-2.8-.016-5.593,0-8.389-.019-.4,0-.512.1-.5.5.029,1.157.027,2.317,0,3.475-.008.36.087.455.446.453,2.627-.015,5.254,0,7.88-.017.35,0,.5.041.486.456-.033,1.448-.028,2.9,0,4.345.007.374-.11.438-.455.436-2.627-.015-5.255,0-7.882-.017-.388,0-.473.1-.471.478.011,3.083,0,6.167-.009,9.25Z" transform="translate(1571.822 0)" fill="#fff"/>
    <path id="Path_161" data-name="Path 161" d="M210.5,160q0-8.925.009-17.849c0-.433-.081-.57-.549-.564-2.218.03-4.437.006-6.656.021-.373,0-.521-.055-.514-.487.029-1.755.022-3.51,0-5.265,0-.363.1-.44.452-.439q11.572.016,23.143,0c.349,0,.462.076.457.448q-.031,2.63,0,5.262c0,.371-.084.487-.478.483-2.236-.022-4.472.006-6.707-.024-.476-.007-.549.142-.548.569q.021,8.667.009,17.334c0,.17-.011.34-.017.51Z" transform="translate(1571.822 0)" fill="#fff"/>
    <path id="Path_162" data-name="Path 162" d="M88.322,160q.009-5.317.015-10.635,0-6.725-.009-13.449c0-.408.111-.5.506-.5q3.814.027,7.628,0c.444,0,.562.094.561.554Q97,147.8,97.013,159.643c0,.119.009.238.014.357Z" transform="translate(1571.822 0)" fill="#fff"/>
    <path id="Path_163" data-name="Path 163" d="M89.242,80.3l-7.064.007V73.756c2.318,0,4.636.057,6.954-.029.232.361.061.763.115,1.143l.007.654-.012,2.646,0,.7Z" transform="translate(1571.822 0)" fill="#282421"/>
    <path id="Path_164" data-name="Path 164" d="M299.49,140.05c-.243.262-.259.626-.417.93a4.009,4.009,0,1,1,.241-3.051c.042.127,0,.313.176.382Zm-7.182-.9a3.19,3.19,0,1,0,3.173-3.19A3.163,3.163,0,0,0,292.308,139.149Z" transform="translate(1571.822 0)" fill="#fff"/>
    <path id="Path_165" data-name="Path 165" d="M152.638,74.272c-1.041-1.174-2.192-2.241-3.3-3.351q-5.437-5.452-10.9-10.878c-.311-.309-.342-.465-.009-.794,2.825-2.793,5.623-5.614,8.44-8.416,1.906-1.9,3.835-3.771,5.741-5.668.227-.226.34-.215.559,0q7.086,7.1,14.192,14.172c.252.251.209.386-.016.611Q160.276,67,153.22,74.051c-.093.094-.17.219-.325.228Z" transform="translate(1571.822 0)" fill="#bbbcbf"/>
    <path id="Path_166" data-name="Path 166" d="M222.567,79.671c.97,1.1,2.05,2.093,3.085,3.13q5.606,5.61,11.226,11.2c.27.268.281.438.006.7-4.807,4.621-9.457,9.4-14.188,14.1-.273.272-.412.208-.647-.028q-7.069-7.079-14.157-14.137c-.266-.264-.176-.382.035-.592q4.389-4.368,8.764-8.748,2.588-2.584,5.177-5.171c.108-.108.2-.228.305-.342C222.368,79.961,222.436,79.711,222.567,79.671Z" transform="translate(1571.822 0)" fill="#bbbcbf"/>
    <path id="Path_167" data-name="Path 167" d="M187.758,79.792c1.113.953,2.1,2.037,3.137,3.068q5.581,5.553,11.15,11.119c.286.284.335.429.018.745q-7.037,6.993-14.037,14.023c-.308.308-.463.286-.758-.01q-6.843-6.864-13.707-13.705c-.18-.18-.374-.346-.562-.519.091-.1.178-.205.273-.3q5.351-5.35,10.705-10.7C185.231,82.268,186.442,80.976,187.758,79.792Z" transform="translate(1571.822 0)" fill="#bbbcbf"/>
    <path id="Path_168" data-name="Path 168" d="M155.5,76.871a5.079,5.079,0,0,1,1.055-1.158q6.576-6.582,13.159-13.159c.357-.359.531-.332.872.01q6.891,6.92,13.808,13.813c.143.143.268.3.4.457-.005.016-.006.037-.017.048q-7.209,7.21-14.415,14.426c-.217.218-.322.128-.485-.039-.6-.608-1.2-1.208-1.808-1.809q-4.713-4.693-9.424-9.388C157.587,79.014,156.485,78,155.5,76.871Z" transform="translate(1571.822 0)" fill="#bbbcbf"/>
    <path id="Path_169" data-name="Path 169" d="M187.465,74.167a13.892,13.892,0,0,1-1.473-1.407q-6.4-6.372-12.785-12.753c-.283-.281-.292-.434,0-.721q7.052-7.017,14.076-14.062c.3-.3.454-.263.727.01q6.888,6.885,13.793,13.757c.144.143.275.3.413.45-.1.113-.2.232-.3.339q-4.9,4.9-9.8,9.788Q189.792,71.875,187.465,74.167Z" transform="translate(1571.822 0)" fill="#bbbcbf"/>
    <path id="Path_170" data-name="Path 170" d="M120.677,76.625c.244.008.349-.2.487-.335q6.841-6.827,13.679-13.656c.538-.537.383-.6,1,.008q6.878,6.867,13.75,13.738c.151.151.362.266.4.511a2.376,2.376,0,0,1-.185.236q-7.014,7.01-14.021,14.024c-.277.278-.4.2-.625-.026-1.534-1.551-3.081-3.089-4.623-4.632Z" transform="translate(1571.822 0)" fill="#bbbcbf"/>
    <path id="Path_171" data-name="Path 171" d="M167.389,94.471c-.016.193-.177.283-.294.4q-6.923,6.921-13.842,13.845c-.305.306-.463.35-.8.017q-6.924-6.956-13.876-13.882a4.25,4.25,0,0,1-.287-.353,1.061,1.061,0,0,1,.112-.165q7.089-7.083,14.173-14.171c.27-.271.39-.158.594.046q6.994,7,14,13.99A3.232,3.232,0,0,1,167.389,94.471Z" transform="translate(1571.822 0)" fill="#bbbcbf"/>
    <path id="Path_172" data-name="Path 172" d="M207.93,59.479c.035-.226.229-.33.369-.47q6.888-6.886,13.774-13.774c.286-.288.428-.273.706.006q6.949,6.966,13.918,13.914c.119.118.217.257.325.386-.1.115-.189.237-.295.344q-6.908,6.9-13.807,13.81c-.364.367-.52.318-.851-.015q-6.858-6.887-13.741-13.748C208.186,59.791,208,59.683,207.93,59.479Z" transform="translate(1571.822 0)" fill="#bbbcbf"/>
    <path id="Path_173" data-name="Path 173" d="M254.228,77.117c-1.5,1.58-3.059,3.1-4.612,4.631-1.444,1.421-2.857,2.875-4.288,4.309-1.743,1.747-3.5,3.481-5.23,5.237-.322.326-.5.343-.843,0q-6.878-6.909-13.784-13.788c-.119-.119-.221-.256-.331-.384.1-.115.189-.237.3-.344q6.961-6.946,13.916-13.9c.309-.309.449-.229.705.028q4.54,4.562,9.1,9.107Q251.7,74.558,254.228,77.117Z" transform="translate(1571.822 0)" fill="#bbbcbf"/>
    <path id="Path_174" data-name="Path 174" d="M219.513,77.129c-1.406,1.388-2.819,2.771-4.219,4.166q-5.016,5-10.015,10.024c-.314.317-.459.271-.747-.017q-6.864-6.887-13.75-13.752a1.157,1.157,0,0,1-.358-.424,2.233,2.233,0,0,1,.186-.235q7.029-7.027,14.054-14.059c.251-.252.369-.208.593.017q3.549,3.568,7.117,7.119Q215.947,73.544,219.513,77.129Z" transform="translate(1571.822 0)" fill="#bbbcbf"/>
    <path id="Path_175" data-name="Path 175" d="M261.9,75.032c.008-.219.2-.305.326-.431q6.054-6.059,12.114-12.115c.242-.243.384-.336.683-.035q5.555,5.58,11.136,11.136a1.523,1.523,0,0,1,.122.162c-.822.047-.822.047-.826.9,0,.136,0,.272-.005.408-.051,0-.1.01-.153.01H262.255A3.511,3.511,0,0,1,261.9,75.032Z" transform="translate(1571.822 0)" fill="#bbbcbf"/>
    <path id="Path_176" data-name="Path 176" d="M261.9,75.032a3.511,3.511,0,0,0,.353.034H285.3c.051,0,.1-.006.153-.01l.005.654c-.137,0-.273-.011-.409-.011q-13.362,0-26.723.01a1.252,1.252,0,0,1-.978-.4q-8.6-8.606-17.219-17.2c-.264-.264-.4-.313-.7-.014q-8.229,8.253-16.478,16.49c-.34.341-.51.4-.892.018q-8.32-8.359-16.672-16.688c-.269-.269-.4-.3-.7-.007Q187.613,75,170.521,92.076c-.321.321-.467.311-.779,0q-8.256-8.28-16.526-16.545c-.388-.389-.56-.342-.921.02q-8.211,8.244-16.445,16.463c-.288.289-.424.314-.731.006q-8.052-8.079-16.125-16.137a1.2,1.2,0,0,0-.938-.377c-4.366.01-8.731.005-13.1.007q-7.853,0-15.705.013l-.007-.654q5.493,0,10.987.009,6.54,0,13.081-.013c1.721.005,3.441.019,5.162.006a.93.93,0,0,1,.751.318c.468.493.964.958,1.449,1.435l9.858,9.868c1.542,1.543,3.089,3.081,4.623,4.632.225.228.348.3.625.026q7-7.023,14.021-14.024a2.376,2.376,0,0,0,.185-.236c.925-.831,1.79-1.722,2.649-2.619l.257.007a33.67,33.67,0,0,0,2.6,2.592c.988,1.127,2.09,2.143,3.147,3.2q4.7,4.706,9.424,9.388c.605.6,1.211,1.2,1.808,1.809.163.167.268.257.485.039q7.2-7.219,14.415-14.426c.011-.011.012-.032.017-.048q1.392-1.276,2.672-2.667,2.32-2.3,4.642-4.6,4.905-4.89,9.8-9.788c.108-.107.2-.226.3-.339.832-.82,1.681-1.623,2.487-2.467.29-.3.43-.243.692.017.84.835,1.633,1.719,2.538,2.488.072.2.256.312.4.453q6.871,6.873,13.741,13.748c.331.333.487.382.851.015q6.885-6.922,13.807-13.81c.106-.107.2-.229.295-.344.8-.783,1.617-1.554,2.4-2.358.27-.279.414-.3.7-.01q6.783,6.807,13.59,13.589c1.422,1.418,2.859,2.822,4.289,4.232.05.113.135.095.224.061C259.45,75.062,260.676,75.1,261.9,75.032Z" transform="translate(1571.822 0)" fill="#050403"/>
    <path id="Path_177" data-name="Path 177" d="M89.242,80.3l0-1.426.2-.028h.106l.2,0h23.353l.107.054c0,.222-.184.316-.311.443q-6,6-12.006,12c-.219.22-.342.334-.631.043q-5.39-5.418-10.806-10.81A3.142,3.142,0,0,1,89.242,80.3Z" transform="translate(1571.822 0)" fill="#bbbcbf"/>
    <path id="Path_178" data-name="Path 178" d="M111.26,78.841h-.2c-.035-.053-.071-.052-.106,0h-.2c-.036-.053-.071-.052-.106,0h-.2c-.035-.053-.07-.052-.105,0h-.2c-.035-.053-.07-.052-.106,0h-.2c-.035-.053-.071-.052-.106,0h-.2c-.036-.053-.071-.052-.106,0h-.2c-.035-.053-.07-.052-.1,0h-.2c-.035-.053-.07-.052-.106,0h-.2c-.035-.053-.071-.052-.106,0h-.2c-.035-.053-.071-.052-.106,0h-.2c-.036-.053-.071-.052-.106,0h-.2c-.035-.053-.07-.052-.105,0h-.2c-.035-.053-.07-.052-.106,0h-.2c-.035-.053-.071-.052-.106,0h-.2c-.036-.053-.071-.052-.106,0h-.2c-.035-.053-.07-.052-.1,0h-.2c-.035-.053-.07-.052-.106,0h-.2c-.035-.053-.071-.052-.106,0h-.2c-.036-.053-.071-.052-.106,0h-.2c-.036-.053-.071-.052-.106,0h-.2c-.035-.053-.07-.052-.106,0h-.2c-.035-.053-.07-.052-.106,0h-.2c-.035-.053-.071-.052-.106,0h-.2c-.036-.053-.071-.052-.106,0h-.2c-.035-.053-.07-.052-.1,0h-.2c-.035-.053-.07-.052-.106,0h-.2c-.035-.053-.071-.052-.106,0h-.2c-.036-.053-.071-.052-.106,0h-.2c-.035-.053-.07-.052-.105,0h-.2c-.035-.053-.07-.052-.106,0h-.2c-.035-.053-.071-.052-.106,0h-.2c-.035-.053-.071-.052-.106,0h-.2c-.036-.053-.071-.052-.106,0h-.2c-.035-.053-.07-.052-.1,0h-.2c-.035-.053-.07-.052-.106,0h-.2c-.035-.053-.071-.052-.106,0H100c-.036-.053-.071-.052-.106,0h-.2c-.035-.053-.07-.052-.105,0h-.2c-.035-.053-.07-.052-.106,0h-.2c-.035-.053-.071-.052-.106,0h-.2c-.036-.053-.071-.052-.106,0h-.2c-.036-.053-.071-.052-.106,0h-.2c-.035-.053-.07-.052-.106,0h-.2c-.035-.053-.07-.052-.106,0h-.2c-.035-.053-.071-.052-.106,0h-.2c-.036-.053-.071-.052-.106,0h-.2c-.035-.053-.07-.052-.105,0h-.2c-.035-.053-.07-.052-.106,0h-.2c-.035-.053-.071-.052-.106,0H96c-.036-.053-.071-.052-.106,0h-.2c-.035-.053-.07-.052-.1,0h-.2c-.035-.053-.07-.052-.106,0h-.2c-.035-.053-.071-.052-.106,0h-.2c-.035-.053-.071-.052-.106,0h-.2c-.036-.053-.071-.052-.106,0h-.2c-.035-.053-.07-.052-.105,0h-.2c-.035-.053-.07-.052-.106,0h-.2c-.035-.053-.071-.052-.106,0h-.2c-.036-.053-.071-.052-.106,0h-.2c-.035-.053-.07-.052-.1,0h-.2c-.035-.053-.07-.052-.106,0h-.2c-.035-.053-.071-.052-.106,0h-.2c-.036-.053-.071-.052-.106,0h-.2c-.036-.053-.071-.052-.106,0h-.2c-.035-.053-.07-.052-.106,0h-.2c-.035-.053-.07-.052-.106,0h-.2c-.035-.053-.071-.052-.106,0h-.2c-.036-.053-.071-.052-.106,0h-.2c-.035-.053-.07-.052-.105,0h-.2c-.035-.053-.07-.052-.106,0l-.2,0c-.036-.051-.071-.05-.106,0l-.2.028,0-.7.43.06a.628.628,0,0,0,.485-.008l.232.008a.628.628,0,0,0,.485-.008l.231.008a.409.409,0,0,0,.383-.008l.229.008a.125.125,0,0,0,.183-.008l.23.008a.628.628,0,0,0,.485-.008l.228.008a.126.126,0,0,0,.184-.008l.229.008a.628.628,0,0,0,.485-.008l.232.008a.628.628,0,0,0,.485-.008l.228.008a.126.126,0,0,0,.184-.008l.229.008a.628.628,0,0,0,.485-.008l.232.008a.628.628,0,0,0,.485-.008l.229.008a.125.125,0,0,0,.183-.008l.23.008a.628.628,0,0,0,.485-.008l.232.008a.628.628,0,0,0,.485-.008l.228.008a.126.126,0,0,0,.184-.008l.229.008a.628.628,0,0,0,.485-.008l.232.008a.628.628,0,0,0,.485-.008l.229.008a.125.125,0,0,0,.183-.008l.23.008a.628.628,0,0,0,.485-.008l.231.008a.628.628,0,0,0,.485-.008l.229.008a.124.124,0,0,0,.183-.008l.23.008a.628.628,0,0,0,.485-.008l.232.008a.628.628,0,0,0,.485-.008l.228.008a.126.126,0,0,0,.184-.008l.229.008a.628.628,0,0,0,.485-.008l.232.008a.628.628,0,0,0,.485-.008l.229.008a.125.125,0,0,0,.183-.008l.23.008a.628.628,0,0,0,.485-.008l.232.008a.625.625,0,0,0,.484-.008l.229.008a.126.126,0,0,0,.184-.008l.229.008a.628.628,0,0,0,.485-.008l.232.008a.628.628,0,0,0,.485-.008l.228.008a.126.126,0,0,0,.184-.008l.229.008a.628.628,0,0,0,.485-.008l.232.008a.628.628,0,0,0,.485-.008l.229.008a.125.125,0,0,0,.183-.008l.23.008a.628.628,0,0,0,.485-.008l.232.008a.628.628,0,0,0,.485-.008l.228.008a.126.126,0,0,0,.184-.008l.229.008a.628.628,0,0,0,.485-.008l.232.008a.628.628,0,0,0,.485-.008l.229.008a.125.125,0,0,0,.183-.008l.229.008a.628.628,0,0,0,.485-.008l.233.008a5,5,0,0,0,1.361,0c.209.03.3.213.428.34q8.6,8.586,17.2,17.176c.494.494.493.493.98.006q8.217-8.209,16.427-16.428c.306-.306.45-.289.746.008q8.2,8.223,16.423,16.424c.57.569.57.568,1.127.011q16.887-16.872,33.766-33.752c.338-.338.5-.306.817.013q8.289,8.31,16.594,16.6c.256.256.4.324.691.018.944-.984,1.931-1.927,2.9-2.892q6.858-6.849,13.708-13.709c.324-.325.49-.4.856-.024,1.725,1.772,3.488,3.507,5.239,5.254q5.613,5.6,11.23,11.2c.125.129.287.085.436.085q3.681,0,7.363,0c.133,0,.275.034.389-.073h.214a6.953,6.953,0,0,0,2.244,0h.214a6.953,6.953,0,0,0,2.244,0h.214a6.953,6.953,0,0,0,2.244,0h.213a6.953,6.953,0,0,0,2.244,0h.214a6.953,6.953,0,0,0,2.244,0h.214a6.953,6.953,0,0,0,2.244,0h.214c.114.105.256.074.389.074q2.268,0,4.538,0c.133,0,.275.032.389-.073h.312c.192.544.173.574-.4.574l-21.875,0c-.237,0-.474.023-.711.036l-.258.047c-1.795-.008-3.59-.024-5.384-.017a.956.956,0,0,1-.759-.308c-.567-.581-1.158-1.14-1.739-1.708q-2.536-2.553-5.072-5.1-4.548-4.556-9.1-9.107c-.256-.257-.4-.337-.705-.028q-6.943,6.965-13.916,13.9c-.107.107-.2.229-.3.344-.9.805-1.736,1.678-2.573,2.549-.131.04-.2.29-.394.118l-2.659-2.66q-3.57-3.581-7.14-7.161-3.556-3.561-7.117-7.119c-.224-.225-.342-.269-.593-.017q-7.019,7.038-14.054,14.059a2.233,2.233,0,0,0-.186.235,37.254,37.254,0,0,0-2.666,2.666c-1.316,1.184-2.527,2.476-3.781,3.724q-5.364,5.337-10.705,10.7c-.1.1-.182.2-.273.3-.788.775-1.6,1.526-2.353,2.337-.354.383-.529.317-.854-.016-.784-.8-1.547-1.632-2.4-2.363a3.232,3.232,0,0,0-.219-.273q-7-6.994-14-13.99c-.2-.2-.324-.317-.594-.046q-7.077,7.095-14.173,14.171a1.061,1.061,0,0,0-.112.165c-.791.772-1.6,1.531-2.366,2.323-.275.283-.42.3-.71,0q-8.826-8.848-17.676-17.676c-.107-.108-.227-.2-.341-.3-.145-.135-.324-.078-.489-.079-.92,0-1.841-.008-2.762,0-.214,0-.445-.08-.64.083l-.1.043-.107-.054c-.035-.053-.07-.052-.106,0h-.2a.2.2,0,0,0-.307,0h-.2c-.036-.053-.071-.052-.106,0h-.2c-.036-.053-.071-.052-.106,0h-.2c-.035-.053-.07-.052-.1,0h-.2C111.331,78.788,111.3,78.789,111.26,78.841Z" transform="translate(1571.822 0)" fill="#050403"/>
    <path id="Path_179" data-name="Path 179" d="M113.315,74.866q-6.542.008-13.081.013-5.495,0-10.987-.009c-.054-.38.117-.782-.115-1.143-.009-.182.138-.265.243-.369q5.457-5.457,10.914-10.914c.225-.225.358-.268.609-.017q6.153,6.168,12.324,12.318A1.02,1.02,0,0,1,113.315,74.866Z" transform="translate(1571.822 0)" fill="#bbbcbf"/>
    <path id="Path_180" data-name="Path 180" d="M262.11,79.15l.258-.047a1.925,1.925,0,0,0,.709.044q10.89,0,21.779-.009c.487,0,.7.106.6.6-.076.413.05.652.519.581q-2.449,2.466-4.9,4.931c-2.023,2.027-4.059,4.042-6.07,6.081-.295.3-.441.254-.708-.013q-5.883-5.9-11.784-11.786C262.384,79.4,262.245,79.279,262.11,79.15Z" transform="translate(1571.822 0)" fill="#bbbcbf"/>
    <path id="Path_181" data-name="Path 181" d="M285.979,80.323c-.469.071-.6-.168-.519-.581.092-.5-.117-.6-.6-.6q-10.889.025-21.779.009a1.925,1.925,0,0,1-.709-.044c.237-.013.474-.036.711-.036l21.875,0c.577,0,.6-.03.4-.574.172-.125.1-.309.1-.464.008-.772,0-1.544,0-2.315l-.005-.654c0-.136,0-.272.005-.408,0-.853,0-.853.826-.9,1.925.007,3.85.024,5.775.01.371,0,.486.072.48.468-.024,1.889-.019,3.779,0,5.669,0,.339-.093.418-.422.417C290.069,80.3,288.024,80.317,285.979,80.323Z" transform="translate(1571.822 0)" fill="#282421"/>
    <path id="Path_182" data-name="Path 182" d="M113.31,78.852c.195-.163.426-.081.64-.083.921-.01,1.842-.007,2.762,0,.165,0,.344-.056.489.079Z" transform="translate(1571.822 0)" fill="#282421"/>
    <path id="Path_183" data-name="Path 183" d="M258.224,75.055c-.089.034-.174.052-.224-.061C258.082,74.986,258.166,74.973,258.224,75.055Z" transform="translate(1571.822 0)" fill="#bbbcbf"/>
    <path id="Path_184" data-name="Path 184" d="M285.457,75.711c0,.771.006,1.543,0,2.315,0,.155.075.339-.1.464H264.769l-8.188-.011q-5.616-5.6-11.23-11.2c-1.751-1.747-3.514-3.482-5.239-5.254-.366-.376-.532-.3-.856.024q-6.841,6.867-13.708,13.709c-.965.965-1.952,1.908-2.9,2.892-.293.306-.435.238-.691-.018q-8.293-8.306-16.594-16.6c-.318-.319-.479-.351-.817-.013Q187.678,78.9,170.784,95.767c-.557.557-.557.558-1.127-.011q-8.216-8.208-16.423-16.424c-.3-.3-.44-.314-.746-.008q-8.2,8.226-16.427,16.428c-.487.487-.486.488-.98-.006q-8.6-8.589-17.2-17.176c-.127-.127-.219-.31-.428-.34a4.315,4.315,0,0,0-1.361,0l-.233-.008a.681.681,0,0,0-.485.008l-.229-.008-.183.008-.229-.008a.681.681,0,0,0-.485.008l-.232-.008a.681.681,0,0,0-.485.008l-.229-.008-.184.008-.228-.008a.681.681,0,0,0-.485.008l-.232-.008a.681.681,0,0,0-.485.008l-.23-.008-.183.008-.229-.008a.681.681,0,0,0-.485.008l-.232-.008a.681.681,0,0,0-.485.008l-.229-.008-.184.008-.228-.008a.681.681,0,0,0-.485.008l-.232-.008a.681.681,0,0,0-.485.008l-.229-.008-.184.008-.229-.008a.679.679,0,0,0-.484.008l-.232-.008a.681.681,0,0,0-.485.008l-.23-.008-.183.008-.229-.008a.681.681,0,0,0-.485.008l-.232-.008a.681.681,0,0,0-.485.008l-.229-.008-.184.008-.228-.008a.681.681,0,0,0-.485.008l-.232-.008a.681.681,0,0,0-.485.008l-.23-.008-.183.008-.229-.008a.681.681,0,0,0-.485.008l-.231-.008a.681.681,0,0,0-.485.008l-.23-.008-.183.008-.229-.008a.681.681,0,0,0-.485.008l-.232-.008a.681.681,0,0,0-.485.008l-.229-.008-.184.008-.228-.008a.681.681,0,0,0-.485.008l-.232-.008a.681.681,0,0,0-.485.008l-.23-.008-.183.008-.229-.008a.681.681,0,0,0-.485.008l-.232-.008a.681.681,0,0,0-.485.008l-.229-.008-.184.008-.228-.008a.681.681,0,0,0-.485.008l-.232-.008a.681.681,0,0,0-.485.008l-.229-.008-.184.008-.228-.008a.681.681,0,0,0-.485.008l-.23-.008-.183.008-.229-.008a.473.473,0,0,0-.383.008l-.231-.008a.681.681,0,0,0-.485.008l-.232-.008a.671.671,0,0,0-.485.008l-.43-.06.012-2.646q7.853-.006,15.705-.013c4.366,0,8.731,0,13.1-.007a1.2,1.2,0,0,1,.938.377q8.056,8.076,16.125,16.137c.307.308.443.283.731-.006q8.217-8.236,16.445-16.463c.361-.362.533-.409.921-.02q8.248,8.286,16.526,16.545c.312.313.458.323.779,0Q187.6,74.986,204.692,57.913c.3-.3.428-.262.7.007q8.332,8.348,16.672,16.688c.382.384.552.323.892-.018q8.232-8.253,16.478-16.49c.3-.3.433-.25.7.014q8.605,8.6,17.219,17.2a1.252,1.252,0,0,0,.978.4q13.362-.02,26.723-.01C285.184,75.7,285.32,75.707,285.457,75.711Z" transform="translate(1571.822 0)" fill="#fbd04e"/>
    <path id="Path_185" data-name="Path 185" d="M112.491,78.841a.2.2,0,0,1,.307,0Z" transform="translate(1571.822 0)" fill="#282421"/>
    <path id="Path_186" data-name="Path 186" d="M94.363,78.841c.035-.052.07-.053.106,0Z" transform="translate(1571.822 0)" fill="#282421"/>
    <path id="Path_187" data-name="Path 187" d="M94.67,78.841c.035-.052.071-.053.106,0Z" transform="translate(1571.822 0)" fill="#282421"/>
    <path id="Path_188" data-name="Path 188" d="M94.977,78.841c.035-.052.071-.053.106,0Z" transform="translate(1571.822 0)" fill="#282421"/>
    <path id="Path_189" data-name="Path 189" d="M95.284,78.841c.036-.052.071-.053.106,0Z" transform="translate(1571.822 0)" fill="#282421"/>
    <path id="Path_190" data-name="Path 190" d="M95.592,78.841c.035-.052.07-.053.1,0Z" transform="translate(1571.822 0)" fill="#282421"/>
    <path id="Path_191" data-name="Path 191" d="M95.9,78.841c.035-.052.07-.053.106,0Z" transform="translate(1571.822 0)" fill="#282421"/>
    <path id="Path_192" data-name="Path 192" d="M96.206,78.841c.035-.052.071-.053.106,0Z" transform="translate(1571.822 0)" fill="#282421"/>
    <path id="Path_193" data-name="Path 193" d="M96.513,78.841c.036-.052.071-.053.106,0Z" transform="translate(1571.822 0)" fill="#282421"/>
    <path id="Path_194" data-name="Path 194" d="M96.821,78.841c.035-.052.07-.053.105,0Z" transform="translate(1571.822 0)" fill="#282421"/>
    <path id="Path_195" data-name="Path 195" d="M97.128,78.841c.035-.052.07-.053.106,0Z" transform="translate(1571.822 0)" fill="#282421"/>
    <path id="Path_196" data-name="Path 196" d="M97.435,78.841c.035-.052.071-.053.106,0Z" transform="translate(1571.822 0)" fill="#282421"/>
    <path id="Path_197" data-name="Path 197" d="M97.742,78.841c.036-.052.071-.053.106,0Z" transform="translate(1571.822 0)" fill="#282421"/>
    <path id="Path_198" data-name="Path 198" d="M98.049,78.841c.036-.052.071-.053.106,0Z" transform="translate(1571.822 0)" fill="#282421"/>
    <path id="Path_199" data-name="Path 199" d="M98.357,78.841c.035-.052.07-.053.106,0Z" transform="translate(1571.822 0)" fill="#282421"/>
    <path id="Path_200" data-name="Path 200" d="M98.664,78.841c.035-.052.07-.053.106,0Z" transform="translate(1571.822 0)" fill="#282421"/>
    <path id="Path_201" data-name="Path 201" d="M98.971,78.841c.035-.052.071-.053.106,0Z" transform="translate(1571.822 0)" fill="#282421"/>
    <path id="Path_202" data-name="Path 202" d="M99.278,78.841c.036-.052.071-.053.106,0Z" transform="translate(1571.822 0)" fill="#282421"/>
    <path id="Path_203" data-name="Path 203" d="M99.586,78.841c.035-.052.07-.053.105,0Z" transform="translate(1571.822 0)" fill="#282421"/>
    <path id="Path_204" data-name="Path 204" d="M99.893,78.841c.035-.052.07-.053.106,0Z" transform="translate(1571.822 0)" fill="#282421"/>
    <path id="Path_205" data-name="Path 205" d="M100.2,78.841c.035-.052.071-.053.106,0Z" transform="translate(1571.822 0)" fill="#282421"/>
    <path id="Path_206" data-name="Path 206" d="M100.507,78.841c.036-.052.071-.053.106,0Z" transform="translate(1571.822 0)" fill="#282421"/>
    <path id="Path_207" data-name="Path 207" d="M100.815,78.841c.035-.052.07-.053.1,0Z" transform="translate(1571.822 0)" fill="#282421"/>
    <path id="Path_208" data-name="Path 208" d="M101.122,78.841c.035-.052.07-.053.106,0Z" transform="translate(1571.822 0)" fill="#282421"/>
    <path id="Path_209" data-name="Path 209" d="M101.429,78.841c.035-.052.071-.053.106,0Z" transform="translate(1571.822 0)" fill="#282421"/>
    <path id="Path_210" data-name="Path 210" d="M101.736,78.841c.035-.052.071-.053.106,0Z" transform="translate(1571.822 0)" fill="#282421"/>
    <path id="Path_211" data-name="Path 211" d="M102.043,78.841c.036-.052.071-.053.106,0Z" transform="translate(1571.822 0)" fill="#282421"/>
    <path id="Path_212" data-name="Path 212" d="M102.351,78.841c.035-.052.07-.053.105,0Z" transform="translate(1571.822 0)" fill="#282421"/>
    <path id="Path_213" data-name="Path 213" d="M102.658,78.841c.035-.052.07-.053.106,0Z" transform="translate(1571.822 0)" fill="#282421"/>
    <path id="Path_214" data-name="Path 214" d="M102.965,78.841c.035-.052.071-.053.106,0Z" transform="translate(1571.822 0)" fill="#282421"/>
    <path id="Path_215" data-name="Path 215" d="M103.272,78.841c.036-.052.071-.053.106,0Z" transform="translate(1571.822 0)" fill="#282421"/>
    <path id="Path_216" data-name="Path 216" d="M103.58,78.841c.035-.052.07-.053.1,0Z" transform="translate(1571.822 0)" fill="#282421"/>
    <path id="Path_217" data-name="Path 217" d="M103.887,78.841c.035-.052.07-.053.106,0Z" transform="translate(1571.822 0)" fill="#282421"/>
    <path id="Path_218" data-name="Path 218" d="M104.194,78.841c.035-.052.071-.053.106,0Z" transform="translate(1571.822 0)" fill="#282421"/>
    <path id="Path_219" data-name="Path 219" d="M104.5,78.841c.036-.052.071-.053.106,0Z" transform="translate(1571.822 0)" fill="#282421"/>
    <path id="Path_220" data-name="Path 220" d="M104.808,78.841c.036-.052.071-.053.106,0Z" transform="translate(1571.822 0)" fill="#282421"/>
    <path id="Path_221" data-name="Path 221" d="M105.116,78.841c.035-.052.07-.053.106,0Z" transform="translate(1571.822 0)" fill="#282421"/>
    <path id="Path_222" data-name="Path 222" d="M105.423,78.841c.035-.052.07-.053.106,0Z" transform="translate(1571.822 0)" fill="#282421"/>
    <path id="Path_223" data-name="Path 223" d="M105.73,78.841c.035-.052.071-.053.106,0Z" transform="translate(1571.822 0)" fill="#282421"/>
    <path id="Path_224" data-name="Path 224" d="M106.037,78.841c.036-.052.071-.053.106,0Z" transform="translate(1571.822 0)" fill="#282421"/>
    <path id="Path_225" data-name="Path 225" d="M106.345,78.841c.035-.052.07-.053.1,0Z" transform="translate(1571.822 0)" fill="#282421"/>
    <path id="Path_226" data-name="Path 226" d="M106.652,78.841c.035-.052.07-.053.106,0Z" transform="translate(1571.822 0)" fill="#282421"/>
    <path id="Path_227" data-name="Path 227" d="M106.959,78.841c.035-.052.071-.053.106,0Z" transform="translate(1571.822 0)" fill="#282421"/>
    <path id="Path_228" data-name="Path 228" d="M107.266,78.841c.036-.052.071-.053.106,0Z" transform="translate(1571.822 0)" fill="#282421"/>
    <path id="Path_229" data-name="Path 229" d="M107.574,78.841c.035-.052.07-.053.105,0Z" transform="translate(1571.822 0)" fill="#282421"/>
    <path id="Path_230" data-name="Path 230" d="M107.881,78.841c.035-.052.07-.053.106,0Z" transform="translate(1571.822 0)" fill="#282421"/>
    <path id="Path_231" data-name="Path 231" d="M108.188,78.841c.035-.052.071-.053.106,0Z" transform="translate(1571.822 0)" fill="#282421"/>
    <path id="Path_232" data-name="Path 232" d="M108.5,78.841c.035-.052.071-.053.106,0Z" transform="translate(1571.822 0)" fill="#282421"/>
    <path id="Path_233" data-name="Path 233" d="M108.8,78.841c.036-.052.071-.053.106,0Z" transform="translate(1571.822 0)" fill="#282421"/>
    <path id="Path_234" data-name="Path 234" d="M109.11,78.841c.035-.052.07-.053.1,0Z" transform="translate(1571.822 0)" fill="#282421"/>
    <path id="Path_235" data-name="Path 235" d="M109.417,78.841c.035-.052.07-.053.106,0Z" transform="translate(1571.822 0)" fill="#282421"/>
    <path id="Path_236" data-name="Path 236" d="M109.724,78.841c.035-.052.071-.053.106,0Z" transform="translate(1571.822 0)" fill="#282421"/>
    <path id="Path_237" data-name="Path 237" d="M110.031,78.841c.036-.052.071-.053.106,0Z" transform="translate(1571.822 0)" fill="#282421"/>
    <path id="Path_238" data-name="Path 238" d="M110.339,78.841c.035-.052.07-.053.105,0Z" transform="translate(1571.822 0)" fill="#282421"/>
    <path id="Path_239" data-name="Path 239" d="M110.646,78.841c.035-.052.07-.053.106,0Z" transform="translate(1571.822 0)" fill="#282421"/>
    <path id="Path_240" data-name="Path 240" d="M110.953,78.841c.035-.052.071-.053.106,0Z" transform="translate(1571.822 0)" fill="#282421"/>
    <path id="Path_241" data-name="Path 241" d="M111.26,78.841c.036-.052.071-.053.106,0Z" transform="translate(1571.822 0)" fill="#282421"/>
    <path id="Path_242" data-name="Path 242" d="M111.568,78.841c.035-.052.07-.053.1,0Z" transform="translate(1571.822 0)" fill="#282421"/>
    <path id="Path_243" data-name="Path 243" d="M111.875,78.841c.035-.052.07-.053.106,0Z" transform="translate(1571.822 0)" fill="#282421"/>
    <path id="Path_244" data-name="Path 244" d="M112.182,78.841c.035-.052.07-.053.106,0Z" transform="translate(1571.822 0)" fill="#282421"/>
    <path id="Path_245" data-name="Path 245" d="M94.056,78.841c.035-.052.07-.053.105,0Z" transform="translate(1571.822 0)" fill="#282421"/>
    <path id="Path_246" data-name="Path 246" d="M113,78.841c.036-.052.071-.053.106,0Z" transform="translate(1571.822 0)" fill="#282421"/>
    <path id="Path_247" data-name="Path 247" d="M93.748,78.841c.036-.052.071-.053.106,0Z" transform="translate(1571.822 0)" fill="#282421"/>
    <path id="Path_248" data-name="Path 248" d="M93.441,78.841c.035-.052.071-.053.106,0Z" transform="translate(1571.822 0)" fill="#282421"/>
    <path id="Path_249" data-name="Path 249" d="M92.827,78.841c.035-.052.07-.053.1,0Z" transform="translate(1571.822 0)" fill="#282421"/>
    <path id="Path_250" data-name="Path 250" d="M92.519,78.841c.036-.052.071-.053.106,0Z" transform="translate(1571.822 0)" fill="#282421"/>
    <path id="Path_251" data-name="Path 251" d="M92.212,78.841c.035-.052.071-.053.106,0Z" transform="translate(1571.822 0)" fill="#282421"/>
    <path id="Path_252" data-name="Path 252" d="M91.9,78.841c.035-.052.07-.053.106,0Z" transform="translate(1571.822 0)" fill="#282421"/>
    <path id="Path_253" data-name="Path 253" d="M91.6,78.841c.035-.052.07-.053.106,0Z" transform="translate(1571.822 0)" fill="#282421"/>
    <path id="Path_254" data-name="Path 254" d="M91.29,78.841c.036-.052.071-.053.106,0Z" transform="translate(1571.822 0)" fill="#282421"/>
    <path id="Path_255" data-name="Path 255" d="M90.983,78.841c.036-.052.071-.053.106,0Z" transform="translate(1571.822 0)" fill="#282421"/>
    <path id="Path_256" data-name="Path 256" d="M90.676,78.841c.035-.052.071-.053.106,0Z" transform="translate(1571.822 0)" fill="#282421"/>
    <path id="Path_257" data-name="Path 257" d="M90.369,78.841c.035-.052.07-.053.106,0Z" transform="translate(1571.822 0)" fill="#282421"/>
    <path id="Path_258" data-name="Path 258" d="M90.062,78.841c.035-.052.07-.053.105,0Z" transform="translate(1571.822 0)" fill="#282421"/>
    <path id="Path_259" data-name="Path 259" d="M89.754,78.841c.036-.052.071-.053.106,0Z" transform="translate(1571.822 0)" fill="#282421"/>
    <path id="Path_260" data-name="Path 260" d="M89.447,78.843c.035-.05.07-.051.106,0Z" transform="translate(1571.822 0)" fill="#282421"/>
    <path id="Path_261" data-name="Path 261" d="M93.134,78.841c.035-.052.07-.053.106,0Z" transform="translate(1571.822 0)" fill="#282421"/>
    <path id="Path_262" data-name="Path 262" d="M256.581,78.479l8.188.011c-.114.107-.256.073-.389.073q-3.683,0-7.363,0C256.868,78.563,256.706,78.607,256.581,78.479Z" transform="translate(1571.822 0)" fill="#282421"/>
    <path id="Path_263" data-name="Path 263" d="M279.73,78.49h5.316c-.114.105-.256.073-.389.073q-2.27,0-4.538,0C279.986,78.564,279.844,78.6,279.73,78.49Z" transform="translate(1571.822 0)" fill="#282421"/>
    <path id="Path_264" data-name="Path 264" d="M277.272,78.49h2.244A6.953,6.953,0,0,1,277.272,78.49Z" transform="translate(1571.822 0)" fill="#282421"/>
    <path id="Path_265" data-name="Path 265" d="M274.814,78.49h2.244A6.953,6.953,0,0,1,274.814,78.49Z" transform="translate(1571.822 0)" fill="#282421"/>
    <path id="Path_266" data-name="Path 266" d="M272.356,78.49H274.6A6.953,6.953,0,0,1,272.356,78.49Z" transform="translate(1571.822 0)" fill="#282421"/>
    <path id="Path_267" data-name="Path 267" d="M269.9,78.49h2.244A6.953,6.953,0,0,1,269.9,78.49Z" transform="translate(1571.822 0)" fill="#282421"/>
    <path id="Path_268" data-name="Path 268" d="M267.441,78.49h2.244A6.953,6.953,0,0,1,267.441,78.49Z" transform="translate(1571.822 0)" fill="#282421"/>
    <path id="Path_269" data-name="Path 269" d="M264.983,78.49h2.244A6.953,6.953,0,0,1,264.983,78.49Z" transform="translate(1571.822 0)" fill="#282421"/>
    <path id="Path_270" data-name="Path 270" d="M116.094,78.23a4.315,4.315,0,0,1,1.361,0A5,5,0,0,1,116.094,78.23Z" transform="translate(1571.822 0)" fill="#282421"/>
    <path id="Path_271" data-name="Path 271" d="M104.316,78.23a.681.681,0,0,1,.485-.008A.628.628,0,0,1,104.316,78.23Z" transform="translate(1571.822 0)" fill="#282421"/>
    <path id="Path_272" data-name="Path 272" d="M105.033,78.23a.681.681,0,0,1,.485-.008A.628.628,0,0,1,105.033,78.23Z" transform="translate(1571.822 0)" fill="#282421"/>
    <path id="Path_273" data-name="Path 273" d="M89.672,78.23a.671.671,0,0,1,.485-.008A.628.628,0,0,1,89.672,78.23Z" transform="translate(1571.822 0)" fill="#282421"/>
    <path id="Path_274" data-name="Path 274" d="M106.16,78.23a.681.681,0,0,1,.485-.008A.628.628,0,0,1,106.16,78.23Z" transform="translate(1571.822 0)" fill="#282421"/>
    <path id="Path_275" data-name="Path 275" d="M106.877,78.23a.679.679,0,0,1,.484-.008A.625.625,0,0,1,106.877,78.23Z" transform="translate(1571.822 0)" fill="#282421"/>
    <path id="Path_276" data-name="Path 276" d="M90.389,78.23a.681.681,0,0,1,.485-.008A.628.628,0,0,1,90.389,78.23Z" transform="translate(1571.822 0)" fill="#282421"/>
    <path id="Path_277" data-name="Path 277" d="M108,78.23a.681.681,0,0,1,.485-.008A.628.628,0,0,1,108,78.23Z" transform="translate(1571.822 0)" fill="#282421"/>
    <path id="Path_278" data-name="Path 278" d="M108.72,78.23a.681.681,0,0,1,.485-.008A.628.628,0,0,1,108.72,78.23Z" transform="translate(1571.822 0)" fill="#282421"/>
    <path id="Path_279" data-name="Path 279" d="M92.13,78.23a.681.681,0,0,1,.485-.008A.628.628,0,0,1,92.13,78.23Z" transform="translate(1571.822 0)" fill="#282421"/>
    <path id="Path_280" data-name="Path 280" d="M109.846,78.23a.681.681,0,0,1,.485-.008A.628.628,0,0,1,109.846,78.23Z" transform="translate(1571.822 0)" fill="#282421"/>
    <path id="Path_281" data-name="Path 281" d="M110.563,78.23a.681.681,0,0,1,.485-.008A.628.628,0,0,1,110.563,78.23Z" transform="translate(1571.822 0)" fill="#282421"/>
    <path id="Path_282" data-name="Path 282" d="M93.256,78.23a.681.681,0,0,1,.485-.008A.628.628,0,0,1,93.256,78.23Z" transform="translate(1571.822 0)" fill="#282421"/>
    <path id="Path_283" data-name="Path 283" d="M111.69,78.23a.681.681,0,0,1,.485-.008A.628.628,0,0,1,111.69,78.23Z" transform="translate(1571.822 0)" fill="#282421"/>
    <path id="Path_284" data-name="Path 284" d="M112.407,78.23a.681.681,0,0,1,.485-.008A.628.628,0,0,1,112.407,78.23Z" transform="translate(1571.822 0)" fill="#282421"/>
    <path id="Path_285" data-name="Path 285" d="M93.973,78.23a.681.681,0,0,1,.485-.008A.628.628,0,0,1,93.973,78.23Z" transform="translate(1571.822 0)" fill="#282421"/>
    <path id="Path_286" data-name="Path 286" d="M113.533,78.23a.681.681,0,0,1,.485-.008A.628.628,0,0,1,113.533,78.23Z" transform="translate(1571.822 0)" fill="#282421"/>
    <path id="Path_287" data-name="Path 287" d="M114.25,78.23a.681.681,0,0,1,.485-.008A.628.628,0,0,1,114.25,78.23Z" transform="translate(1571.822 0)" fill="#282421"/>
    <path id="Path_288" data-name="Path 288" d="M95.1,78.23a.681.681,0,0,1,.485-.008A.628.628,0,0,1,95.1,78.23Z" transform="translate(1571.822 0)" fill="#282421"/>
    <path id="Path_289" data-name="Path 289" d="M115.376,78.23a.681.681,0,0,1,.485-.008A.628.628,0,0,1,115.376,78.23Z" transform="translate(1571.822 0)" fill="#282421"/>
    <path id="Path_290" data-name="Path 290" d="M95.816,78.23a.681.681,0,0,1,.485-.008A.628.628,0,0,1,95.816,78.23Z" transform="translate(1571.822 0)" fill="#282421"/>
    <path id="Path_291" data-name="Path 291" d="M103.19,78.23a.681.681,0,0,1,.485-.008A.628.628,0,0,1,103.19,78.23Z" transform="translate(1571.822 0)" fill="#282421"/>
    <path id="Path_292" data-name="Path 292" d="M102.473,78.23a.681.681,0,0,1,.485-.008A.628.628,0,0,1,102.473,78.23Z" transform="translate(1571.822 0)" fill="#282421"/>
    <path id="Path_293" data-name="Path 293" d="M96.943,78.23a.681.681,0,0,1,.485-.008A.628.628,0,0,1,96.943,78.23Z" transform="translate(1571.822 0)" fill="#282421"/>
    <path id="Path_294" data-name="Path 294" d="M101.346,78.23a.681.681,0,0,1,.485-.008A.628.628,0,0,1,101.346,78.23Z" transform="translate(1571.822 0)" fill="#282421"/>
    <path id="Path_295" data-name="Path 295" d="M100.63,78.23a.681.681,0,0,1,.485-.008A.628.628,0,0,1,100.63,78.23Z" transform="translate(1571.822 0)" fill="#282421"/>
    <path id="Path_296" data-name="Path 296" d="M97.66,78.23a.681.681,0,0,1,.485-.008A.628.628,0,0,1,97.66,78.23Z" transform="translate(1571.822 0)" fill="#282421"/>
    <path id="Path_297" data-name="Path 297" d="M99.5,78.23a.681.681,0,0,1,.485-.008A.628.628,0,0,1,99.5,78.23Z" transform="translate(1571.822 0)" fill="#282421"/>
    <path id="Path_298" data-name="Path 298" d="M98.786,78.23a.681.681,0,0,1,.485-.008A.628.628,0,0,1,98.786,78.23Z" transform="translate(1571.822 0)" fill="#282421"/>
    <path id="Path_299" data-name="Path 299" d="M91.105,78.23a.473.473,0,0,1,.383-.008A.409.409,0,0,1,91.105,78.23Z" transform="translate(1571.822 0)" fill="#282421"/>
    <path id="Path_300" data-name="Path 300" d="M98.373,78.23l.184-.008A.126.126,0,0,1,98.373,78.23Z" transform="translate(1571.822 0)" fill="#282421"/>
    <path id="Path_301" data-name="Path 301" d="M100.217,78.23l.183-.008A.125.125,0,0,1,100.217,78.23Z" transform="translate(1571.822 0)" fill="#282421"/>
    <path id="Path_302" data-name="Path 302" d="M102.06,78.23l.183-.008A.124.124,0,0,1,102.06,78.23Z" transform="translate(1571.822 0)" fill="#282421"/>
    <path id="Path_303" data-name="Path 303" d="M96.53,78.23l.183-.008A.125.125,0,0,1,96.53,78.23Z" transform="translate(1571.822 0)" fill="#282421"/>
    <path id="Path_304" data-name="Path 304" d="M103.9,78.23l.184-.008A.126.126,0,0,1,103.9,78.23Z" transform="translate(1571.822 0)" fill="#282421"/>
    <path id="Path_305" data-name="Path 305" d="M114.964,78.23l.183-.008A.125.125,0,0,1,114.964,78.23Z" transform="translate(1571.822 0)" fill="#282421"/>
    <path id="Path_306" data-name="Path 306" d="M94.686,78.23l.184-.008A.126.126,0,0,1,94.686,78.23Z" transform="translate(1571.822 0)" fill="#282421"/>
    <path id="Path_307" data-name="Path 307" d="M113.12,78.23l.184-.008A.126.126,0,0,1,113.12,78.23Z" transform="translate(1571.822 0)" fill="#282421"/>
    <path id="Path_308" data-name="Path 308" d="M111.277,78.23l.183-.008A.125.125,0,0,1,111.277,78.23Z" transform="translate(1571.822 0)" fill="#282421"/>
    <path id="Path_309" data-name="Path 309" d="M92.843,78.23l.184-.008A.126.126,0,0,1,92.843,78.23Z" transform="translate(1571.822 0)" fill="#282421"/>
    <path id="Path_310" data-name="Path 310" d="M109.433,78.23l.184-.008A.126.126,0,0,1,109.433,78.23Z" transform="translate(1571.822 0)" fill="#282421"/>
    <path id="Path_311" data-name="Path 311" d="M91.717,78.23l.183-.008A.125.125,0,0,1,91.717,78.23Z" transform="translate(1571.822 0)" fill="#282421"/>
    <path id="Path_312" data-name="Path 312" d="M107.59,78.23l.184-.008A.126.126,0,0,1,107.59,78.23Z" transform="translate(1571.822 0)" fill="#282421"/>
    <path id="Path_313" data-name="Path 313" d="M105.747,78.23l.183-.008A.125.125,0,0,1,105.747,78.23Z" transform="translate(1571.822 0)" fill="#282421"/>
    <path id="Path_314" data-name="Path 314" d="M296.163,139.433a8.421,8.421,0,0,1,1.223,1.785c-.99.2-1.023.184-1.454-.643a1.817,1.817,0,0,0-.8-.956c-.411-.18-.549-.089-.553.348a4.447,4.447,0,0,0,.007.766c.091.546-.187.613-.629.57-.215-.022-.292-.079-.29-.3.008-1.227.01-2.454,0-3.68,0-.276.136-.3.348-.3.563.006,1.126,0,1.689,0,.816,0,1.3.3,1.423.888C297.269,138.593,296.981,139.068,296.163,139.433Zm-1-.589a4.13,4.13,0,0,0,.561-.036.518.518,0,0,0,.486-.5.5.5,0,0,0-.434-.537,3.979,3.979,0,0,0-1.009-.053c-.056,0-.163.046-.164.075a3.112,3.112,0,0,0,.01.955C294.666,138.95,294.974,138.789,295.159,138.844Z" transform="translate(1571.822 0)" fill="#fff"/>
  </g>
</svg>
