<svg xmlns="http://www.w3.org/2000/svg" viewBox="0 0 217.31 115"><defs><style>.cls-1{fill:#221f1f;}.cls-2{fill:#282421;}.cls-3{fill:#bbbcbf;}.cls-4{fill:#050403;}.cls-5{fill:#fbd04e;}</style></defs><title>Asset 3</title><g id="Layer_2" data-name="Layer 2"><g id="Layer_1-2" data-name="Layer 1"><path class="cls-1" d="M59.7,115c0-3.56,0-7.12,0-10.68q0-6.7,0-13.4c0-.37.06-.51.48-.51q8.76,0,17.51,0c.37,0,.49.06.48.46q0,2.15,0,4.29c0,.38-.08.49-.47.49-3,0-5.9,0-8.85,0-.39,0-.53.06-.52.49,0,1.12,0,2.25,0,3.37,0,.37.1.45.45.45,2.68,0,5.36,0,8,0,.43,0,.53.11.52.53q0,2.07,0,4.14c0,.41-.08.54-.52.54-2.55,0-5.11,0-7.67,0-.82,0-.82,0-.82.79,0,1.11,0,2.21,0,3.32,0,.43.08.57.55.57,3,0,5.94,0,8.91,0,.41,0,.54.09.53.52,0,1.36,0,2.72,0,4.09a1.36,1.36,0,0,0,0,.6Z"/><path class="cls-1" d="M187.82,115q0-5.16,0-10.32c0-4.57,0-9.13,0-13.7,0-.48.14-.57.58-.57q8.44,0,16.89,0c.41,0,.55.07.54.52,0,1.41,0,2.82,0,4.24,0,.39-.1.48-.48.48-2.8,0-5.59,0-8.39,0-.4,0-.51.1-.5.5q0,1.74,0,3.48c0,.36.09.45.45.45,2.62,0,5.25,0,7.88,0,.35,0,.49,0,.48.46,0,1.45,0,2.9,0,4.34,0,.38-.11.44-.46.44-2.62,0-5.25,0-7.88,0-.39,0-.47.1-.47.48,0,3.08,0,6.17,0,9.25Z"/><path class="cls-1" d="M128.32,115c0-6,0-11.9,0-17.85,0-.43-.08-.57-.55-.56-2.22,0-4.44,0-6.66,0-.37,0-.52-.06-.51-.49,0-1.75,0-3.51,0-5.26,0-.37.1-.44.45-.44q11.58,0,23.15,0c.34,0,.46.07.45.45,0,1.75,0,3.5,0,5.26,0,.37-.08.48-.48.48-2.23,0-4.47,0-6.7,0-.48,0-.55.14-.55.57q0,8.66,0,17.33c0,.17,0,.34,0,.51Z"/><path class="cls-1" d="M6.14,115c0-3.55,0-7.09,0-10.64,0-4.48,0-9,0-13.44,0-.41.11-.51.51-.5,2.54,0,5.08,0,7.62,0,.45,0,.57.1.57.56q0,11.84,0,23.67c0,.12,0,.24,0,.36Z"/><path class="cls-2" d="M7.06,35.3H0V28.76c2.32,0,4.64,0,7,0,.24.36.07.76.12,1.14v.65l0,2.65V35.3Z"/><path class="cls-2" d="M217.31,95.05c-.24.26-.26.63-.41.93a4.05,4.05,0,0,1-4.68,2,4,4,0,1,1,4.92-5.08c0,.13,0,.31.17.38Zm-7.18-.9A3.19,3.19,0,1,0,213.3,91,3.17,3.17,0,0,0,210.13,94.15Z"/><path class="cls-3" d="M70.46,29.27c-1-1.17-2.19-2.24-3.3-3.35Q61.73,20.47,56.26,15c-.31-.31-.34-.46,0-.79,2.82-2.79,5.62-5.61,8.44-8.42C66.6,3.94,68.53,2.06,70.43.16c.23-.22.34-.21.56,0q7.08,7.1,14.19,14.17c.25.25.21.39,0,.61L71,29.05c-.09.09-.17.22-.32.23Z"/><path class="cls-3" d="M140.39,34.67c1,1.1,2.05,2.09,3.08,3.13Q149.08,43.41,154.7,49c.27.26.28.43,0,.7-4.81,4.62-9.46,9.4-14.19,14.1-.28.27-.41.2-.65,0q-7.06-7.08-14.16-14.14c-.26-.26-.17-.38,0-.59l8.76-8.75q2.6-2.58,5.18-5.17c.11-.11.2-.23.31-.34C140.19,35,140.26,34.71,140.39,34.67Z"/><path class="cls-3" d="M105.58,34.79c1.11,1,2.1,2,3.14,3.07,3.72,3.7,7.42,7.42,11.15,11.12.28.28.33.43,0,.74q-7,7-14,14c-.31.31-.46.28-.76,0Q98.25,56.87,91.38,50c-.18-.18-.37-.34-.56-.52l.27-.3c3.57-3.56,7.13-7.14,10.71-10.69C103.05,37.27,104.26,36,105.58,34.79Z"/><path class="cls-3" d="M73.32,31.87a5.28,5.28,0,0,1,1.05-1.16c4.39-4.39,8.79-8.76,13.16-13.16.36-.36.53-.33.87,0,4.6,4.62,9.21,9.21,13.81,13.82.15.14.27.3.41.45,0,0,0,0,0,.05Q95.39,39.1,88.18,46.31c-.21.22-.32.13-.48,0l-1.81-1.81q-4.71-4.69-9.42-9.39C75.41,34,74.31,33,73.32,31.87Z"/><path class="cls-3" d="M105.29,29.17a14.09,14.09,0,0,1-1.48-1.41Q97.42,21.39,91,15c-.28-.28-.29-.44,0-.72q7.05-7,14.07-14.07c.3-.29.46-.26.73,0L119.62,14a5.74,5.74,0,0,1,.41.45c-.1.11-.19.23-.3.34l-9.8,9.79C108.39,26.11,106.83,27.63,105.29,29.17Z"/><path class="cls-3" d="M38.5,31.63c.24,0,.35-.2.49-.34L52.66,17.63c.54-.53.39-.6,1,0L67.41,31.38c.15.15.36.27.4.51a2.15,2.15,0,0,1-.18.24q-7,7-14,14c-.27.28-.39.2-.62,0-1.53-1.55-3.08-3.08-4.62-4.63Q43.43,36.56,38.5,31.63Z"/><path class="cls-3" d="M85.21,49.47c0,.19-.18.28-.29.4Q78,56.79,71.08,63.72c-.31.3-.47.35-.8,0L56.4,49.85c-.1-.11-.19-.23-.28-.35a.62.62,0,0,1,.11-.17q7.08-7.08,14.17-14.17c.27-.27.39-.16.6.05q7,7,14,14A2.88,2.88,0,0,1,85.21,49.47Z"/><path class="cls-3" d="M125.75,14.48c0-.23.23-.33.37-.47Q133,7.13,139.89.23c.29-.28.43-.27.71,0q6.94,7,13.92,13.91a3.89,3.89,0,0,1,.32.39,2.37,2.37,0,0,1-.29.34c-4.61,4.61-9.22,9.2-13.81,13.82-.36.36-.52.31-.85,0Q133,21.8,126.15,14.93C126,14.79,125.82,14.68,125.75,14.48Z"/><path class="cls-3" d="M172.05,32.12c-1.5,1.58-3.06,3.1-4.61,4.63s-2.86,2.87-4.29,4.31c-1.74,1.74-3.5,3.48-5.23,5.23-.32.33-.5.35-.84,0q-6.89-6.9-13.79-13.78c-.12-.12-.22-.26-.33-.39.1-.11.19-.24.3-.34q7-6.95,13.91-13.9c.31-.31.45-.23.71,0L167,27Z"/><path class="cls-3" d="M137.34,32.13c-1.41,1.39-2.82,2.77-4.22,4.17q-5,5-10,10c-.31.32-.46.27-.75,0q-6.85-6.88-13.75-13.75c-.13-.13-.29-.23-.35-.42a2.15,2.15,0,0,1,.18-.24q7-7,14.06-14.06c.25-.25.37-.21.59,0L130.2,25Z"/><path class="cls-3" d="M179.72,30c0-.22.2-.3.33-.43l12.11-12.11c.25-.25.39-.34.69,0Q198.4,23,204,28.59a1.12,1.12,0,0,1,.13.16c-.83.05-.83.05-.83.9,0,.13,0,.27,0,.41H180.08C180,30.07,179.84,30,179.72,30Z"/><path class="cls-4" d="M179.72,30c.12,0,.24,0,.36,0h23.19v.65H176.15a1.25,1.25,0,0,1-1-.4L158,13.11c-.26-.26-.4-.31-.7,0-5.48,5.5-11,11-16.47,16.49-.35.34-.52.4-.9,0q-8.31-8.35-16.67-16.69c-.27-.27-.4-.3-.7,0L88.34,47.08c-.32.32-.46.31-.78,0Q79.31,38.79,71,30.53c-.39-.39-.56-.34-.92,0L53.67,47c-.29.29-.42.32-.73,0q-8.05-8.09-16.12-16.14a1.21,1.21,0,0,0-.94-.38H7.08v-.65H36.3a.93.93,0,0,1,.75.32c.47.49,1,1,1.45,1.44q4.94,4.92,9.86,9.86C49.9,43,51.45,44.57,53,46.12c.23.23.35.31.62,0q7-7,14-14a2.15,2.15,0,0,0,.18-.24c.93-.83,1.79-1.72,2.65-2.62h.26a31.77,31.77,0,0,0,2.6,2.59c1,1.13,2.09,2.14,3.15,3.2q4.69,4.71,9.42,9.39l1.81,1.81c.16.17.27.26.48,0q7.2-7.23,14.42-14.43s0,0,0-.05c.92-.85,1.81-1.74,2.67-2.66,1.54-1.54,3.1-3.06,4.64-4.6l9.8-9.79c.11-.11.2-.23.3-.34.84-.82,1.69-1.62,2.49-2.47.29-.3.43-.24.69,0,.84.84,1.64,1.72,2.54,2.49.07.2.26.31.4.45Q133,21.8,139.89,28.68c.33.33.49.38.85,0,4.59-4.62,9.2-9.21,13.81-13.82a2.37,2.37,0,0,0,.29-.34c.81-.78,1.62-1.55,2.4-2.36.27-.28.42-.29.7,0q6.8,6.81,13.59,13.59L175.82,30c.05.12.14.1.23.06C177.27,30.06,178.5,30.1,179.72,30Z"/><path class="cls-3" d="M7.06,35.3V33.87l.2,0H30.93l.11,0c0,.23-.19.32-.31.45l-12,12c-.22.22-.34.34-.63,0-3.59-3.62-7.2-7.21-10.81-10.82C7.2,35.49,7.14,35.39,7.06,35.3Z"/><path class="cls-4" d="M29.08,33.84h-.2c0-.05-.07-.05-.1,0h-.21c0-.05-.07-.05-.1,0h-.2c0-.05-.07-.05-.11,0H28c0-.05-.07-.05-.11,0h-.2c0-.05-.07-.05-.1,0h-.21c0-.05-.07-.05-.1,0H27c0-.05-.07-.05-.11,0h-.2c0-.05-.07-.05-.11,0h-.2c0-.05-.07-.05-.1,0h-.2c0-.05-.07-.05-.11,0h-.2c0-.05-.07-.05-.11,0h-.2c0-.05-.07-.05-.1,0h-.21c0-.05-.07-.05-.1,0h-.2c0-.05-.07-.05-.11,0h-.2c0-.05-.07-.05-.11,0h-.2c0-.05-.07-.05-.1,0H24c0-.05-.08-.05-.11,0h-.2c0-.05-.07-.05-.11,0h-.2c0-.05-.07-.05-.1,0H23c0-.05-.07-.05-.1,0h-.2c0-.05-.07-.05-.11,0h-.2c0-.05-.07-.05-.11,0h-.2c0-.05-.07-.05-.1,0h-.21c0-.05-.07-.05-.1,0h-.2c0-.05-.07-.05-.11,0h-.2c0-.05-.07-.05-.11,0h-.2c0-.05-.07-.05-.1,0h-.2c0-.05-.07-.05-.11,0h-.2c0-.05-.07-.05-.11,0H20c0-.05-.07-.05-.1,0h-.21c0-.05-.07-.05-.1,0h-.2c0-.05-.07-.05-.11,0h-.2c0-.05-.07-.05-.11,0h-.2c0-.05-.07-.05-.1,0h-.2c0-.05-.08-.05-.11,0h-.2c0-.05-.07-.05-.11,0h-.2c0-.05-.07-.05-.11,0h-.2c0-.05-.07-.05-.1,0h-.2c0-.05-.07-.05-.11,0h-.2c0-.05-.07-.05-.11,0h-.2c0-.05-.07-.05-.1,0h-.21c0-.05-.07-.05-.1,0H16c0-.05-.07-.05-.11,0h-.2c0-.05-.07-.05-.11,0h-.2c0-.05-.07-.05-.1,0h-.2c0-.05-.07-.05-.11,0h-.2c0-.05-.07-.05-.11,0h-.2c0-.05-.07-.05-.1,0h-.21c0-.05-.07-.05-.1,0h-.2c0-.05-.07-.05-.11,0h-.2c0-.05-.07-.05-.11,0h-.2c0-.05-.07-.05-.1,0h-.2c0-.05-.08-.05-.11,0h-.2c0-.05-.07-.05-.11,0h-.2c0-.05-.07-.05-.11,0H12c0-.05-.07-.05-.1,0h-.2c0-.05-.07-.05-.11,0h-.2c0-.05-.07-.05-.11,0h-.2c0-.05-.07-.05-.1,0h-.21c0-.05-.07-.05-.1,0h-.2c0-.05-.07-.05-.11,0h-.2c0-.05-.07-.05-.11,0h-.2c0-.05-.07-.05-.1,0h-.2c0-.05-.07-.05-.11,0h-.2c0-.05-.07-.05-.11,0h-.2c0-.05-.07-.05-.1,0H8.6c0-.05-.07-.05-.1,0H8.3c0-.05-.07-.05-.11,0H8c0-.05-.07-.05-.11,0h-.2c0-.05-.07-.05-.1,0H7.37c0-.05-.07-.05-.1,0l-.2,0v-.7l.43.06a.64.64,0,0,0,.49,0h.23a.64.64,0,0,0,.49,0h.23a.39.39,0,0,0,.38,0h.23a.12.12,0,0,0,.18,0H10a.64.64,0,0,0,.49,0h.23a.12.12,0,0,0,.18,0h.23a.62.62,0,0,0,.48,0h.24a.62.62,0,0,0,.48,0h.23a.12.12,0,0,0,.18,0h.23a.64.64,0,0,0,.49,0h.23a.62.62,0,0,0,.48,0h.23a.13.13,0,0,0,.19,0h.22a.64.64,0,0,0,.49,0h.23a.64.64,0,0,0,.49,0h.23a.12.12,0,0,0,.18,0h.23a.62.62,0,0,0,.48,0h.24a.62.62,0,0,0,.48,0H18a.12.12,0,0,0,.18,0h.23a.64.64,0,0,0,.49,0h.23a.62.62,0,0,0,.48,0h.23a.13.13,0,0,0,.19,0h.23a.62.62,0,0,0,.48,0H21a.64.64,0,0,0,.49,0h.23a.12.12,0,0,0,.18,0h.23a.62.62,0,0,0,.48,0h.24a.62.62,0,0,0,.48,0h.23a.12.12,0,0,0,.18,0H24a.64.64,0,0,0,.49,0h.23a.62.62,0,0,0,.48,0h.23a.13.13,0,0,0,.19,0h.23a.62.62,0,0,0,.48,0h.23a.64.64,0,0,0,.49,0h.23a.12.12,0,0,0,.18,0h.23a.62.62,0,0,0,.48,0h.24a.62.62,0,0,0,.48,0h.23a.12.12,0,0,0,.18,0h.23a.64.64,0,0,0,.49,0h.23a.62.62,0,0,0,.48,0h.23a.13.13,0,0,0,.19,0h.23a.62.62,0,0,0,.48,0h.23a.64.64,0,0,0,.49,0h.23a.12.12,0,0,0,.18,0h.23a.62.62,0,0,0,.48,0h.24a5.16,5.16,0,0,0,1.36,0c.21,0,.3.21.43.34L52.9,50.75c.5.49.5.49,1,0q8.22-8.2,16.43-16.43c.31-.3.45-.28.75,0q8.19,8.22,16.42,16.43c.57.57.57.56,1.13,0L122.37,17c.34-.34.5-.31.82,0q8.28,8.31,16.59,16.6c.26.26.4.33.69,0,.95-1,1.93-1.93,2.9-2.89q6.85-6.85,13.71-13.71c.32-.33.49-.4.85,0,1.73,1.78,3.49,3.51,5.24,5.26l11.23,11.2c.13.13.29.08.44.08h7.36c.13,0,.28,0,.39-.07h.21a7.08,7.08,0,0,0,2.25,0h.21a7.08,7.08,0,0,0,2.25,0h.21a7,7,0,0,0,2.24,0h.22a7,7,0,0,0,2.24,0h.22a7,7,0,0,0,2.24,0h.21a7.08,7.08,0,0,0,2.25,0h.21c.12.11.26.07.39.07h4.54a.54.54,0,0,0,.39-.07h.31c.19.54.17.57-.4.57H180.9c-.24,0-.47,0-.71,0l-.26,0-5.38,0a1,1,0,0,1-.76-.3c-.57-.59-1.16-1.15-1.74-1.71L167,27l-9.1-9.1c-.26-.26-.4-.34-.71,0q-6.94,7-13.91,13.9c-.11.1-.2.23-.3.34-.9.81-1.73,1.68-2.57,2.55-.13,0-.2.29-.39.12l-2.66-2.66L130.2,25l-7.12-7.12c-.22-.23-.34-.27-.59,0q-7,7-14.06,14.06a2.15,2.15,0,0,0-.18.24,35.27,35.27,0,0,0-2.67,2.66c-1.32,1.19-2.53,2.48-3.78,3.73-3.58,3.55-7.14,7.13-10.71,10.69l-.27.3c-.79.78-1.6,1.53-2.35,2.34-.36.38-.53.32-.86,0-.78-.8-1.54-1.63-2.4-2.36A2.88,2.88,0,0,0,85,49.2q-7-7-14-14c-.21-.21-.33-.32-.6-.05q-7.08,7.1-14.17,14.17a.62.62,0,0,0-.11.17c-.79.77-1.6,1.53-2.37,2.32-.27.28-.42.3-.71,0Q44.22,43,35.36,34.15a3.31,3.31,0,0,0-.34-.3c-.14-.14-.32-.08-.49-.08q-1.38,0-2.76,0c-.21,0-.44-.08-.64.08l-.09,0-.11,0c0-.05-.07-.05-.11,0h-.2a.2.2,0,0,0-.31,0h-.2c0-.05-.07-.05-.11,0h-.2c0-.05-.07-.05-.1,0h-.2c0-.05-.08-.05-.11,0h-.2C29.15,33.79,29.12,33.79,29.08,33.84Z"/><path class="cls-3" d="M31.14,29.87H7.07c-.05-.38.12-.78-.12-1.14,0-.18.14-.27.25-.37q5.46-5.46,10.91-10.92c.23-.22.36-.26.61,0Q24.87,23.6,31,29.74A1.13,1.13,0,0,1,31.14,29.87Z"/><path class="cls-3" d="M179.93,34.15l.26,0a1.88,1.88,0,0,0,.71,0h21.78c.48,0,.69.1.6.6s.05.65.52.58q-2.45,2.48-4.9,4.93c-2,2-4.06,4-6.07,6.09-.3.29-.44.25-.71,0q-5.88-5.9-11.78-11.78C180.21,34.4,180.07,34.28,179.93,34.15Z"/><path class="cls-2" d="M203.8,35.32c-.47.07-.59-.16-.52-.58s-.12-.6-.6-.6H180.9a1.88,1.88,0,0,1-.71,0c.24,0,.47,0,.71,0h21.88c.57,0,.59,0,.4-.57.17-.12.1-.31.1-.46,0-.78,0-1.55,0-2.32v-.65c0-.14,0-.28,0-.41,0-.85,0-.85.83-.9,1.92,0,3.85,0,5.77,0,.37,0,.49.07.48.47q0,2.83,0,5.67c0,.33-.1.41-.42.41C207.89,35.3,205.85,35.32,203.8,35.32Z"/><path class="cls-2" d="M31.13,33.85c.2-.16.43-.08.64-.08q1.38,0,2.76,0c.17,0,.35-.06.49.08Z"/><path class="cls-3" d="M176.05,30.05c-.09,0-.18.06-.23-.06S176,30,176.05,30.05Z"/><path class="cls-5" d="M203.28,30.71c0,.77,0,1.54,0,2.32,0,.15.07.34-.1.46H174.4l-11.23-11.2c-1.75-1.75-3.51-3.48-5.24-5.26-.36-.37-.53-.3-.85,0q-6.84,6.87-13.71,13.71c-1,1-2,1.91-2.9,2.89-.29.31-.43.24-.69,0q-8.29-8.31-16.59-16.6c-.32-.32-.48-.35-.82,0L88.61,50.77c-.56.55-.56.56-1.13,0q-8.22-8.22-16.42-16.43c-.3-.29-.44-.31-.75,0q-8.2,8.24-16.43,16.43c-.48.49-.48.49-1,0L35.71,33.57c-.13-.13-.22-.31-.43-.34a4.43,4.43,0,0,0-1.36,0h-.24a.72.72,0,0,0-.48,0h-.64a.69.69,0,0,0-.49,0h-.23a.72.72,0,0,0-.48,0h-.65a.66.66,0,0,0-.48,0H30a.75.75,0,0,0-.49,0h-.64a.66.66,0,0,0-.48,0h-.24a.72.72,0,0,0-.48,0H27a.69.69,0,0,0-.49,0h-.23a.72.72,0,0,0-.48,0h-.65a.66.66,0,0,0-.48,0h-.23a.75.75,0,0,0-.49,0h-.64a.66.66,0,0,0-.48,0h-.24a.72.72,0,0,0-.48,0H21.5a.69.69,0,0,0-.49,0h-.23a.72.72,0,0,0-.48,0h-.65a.66.66,0,0,0-.48,0h-.23a.75.75,0,0,0-.49,0h-.64a.66.66,0,0,0-.48,0h-.24a.72.72,0,0,0-.48,0H16a.69.69,0,0,0-.49,0h-.23a.75.75,0,0,0-.49,0h-.64a.66.66,0,0,0-.48,0h-.23a.75.75,0,0,0-.49,0h-.64a.66.66,0,0,0-.48,0h-.24a.72.72,0,0,0-.48,0h-.64a.69.69,0,0,0-.49,0H9.31a.5.5,0,0,0-.38,0H8.7a.69.69,0,0,0-.49,0H8a.75.75,0,0,0-.49,0l-.43-.06,0-2.65h28.8a1.21,1.21,0,0,1,.94.38Q44.88,38.95,52.94,47c.31.31.44.28.73,0L70.12,30.55c.36-.36.53-.41.92,0q8.25,8.28,16.52,16.54c.32.32.46.33.78,0l34.17-34.17c.3-.29.43-.26.7,0q8.34,8.34,16.67,16.69c.38.38.55.32.9,0,5.48-5.5,11-11,16.47-16.49.3-.3.44-.25.7,0l17.22,17.2a1.25,1.25,0,0,0,1,.4h27.13Z"/><path class="cls-2" d="M30.31,33.84a.2.2,0,0,1,.31,0Z"/><path class="cls-2" d="M12.18,33.84c0-.05.08-.05.11,0Z"/><path class="cls-2" d="M12.49,33.84c0-.05.07-.05.11,0Z"/><path class="cls-2" d="M12.8,33.84c0-.05.07-.05.11,0Z"/><path class="cls-2" d="M13.11,33.84c0-.05.07-.05.1,0Z"/><path class="cls-2" d="M13.41,33.84c0-.05.07-.05.11,0Z"/><path class="cls-2" d="M13.72,33.84c0-.05.07-.05.11,0Z"/><path class="cls-2" d="M14,33.84c0-.05.07-.05.1,0Z"/><path class="cls-2" d="M14.34,33.84c0-.05.07-.05.1,0Z"/><path class="cls-2" d="M14.64,33.84c0-.05.07-.05.11,0Z"/><path class="cls-2" d="M15,33.84c0-.05.07-.05.11,0Z"/><path class="cls-2" d="M15.26,33.84c0-.05.07-.05.1,0Z"/><path class="cls-2" d="M15.56,33.84c0-.05.07-.05.11,0Z"/><path class="cls-2" d="M15.87,33.84c0-.05.07-.05.11,0Z"/><path class="cls-2" d="M16.18,33.84c0-.05.07-.05.1,0Z"/><path class="cls-2" d="M16.49,33.84c0-.05.07-.05.1,0Z"/><path class="cls-2" d="M16.79,33.84c0-.05.07-.05.11,0Z"/><path class="cls-2" d="M17.1,33.84c0-.05.07-.05.11,0Z"/><path class="cls-2" d="M17.41,33.84c0-.05.07-.05.1,0Z"/><path class="cls-2" d="M17.71,33.84c0-.05.08-.05.11,0Z"/><path class="cls-2" d="M18,33.84c0-.05.07-.05.11,0Z"/><path class="cls-2" d="M18.33,33.84c0-.05.07-.05.11,0Z"/><path class="cls-2" d="M18.64,33.84c0-.05.07-.05.1,0Z"/><path class="cls-2" d="M18.94,33.84c0-.05.07-.05.11,0Z"/><path class="cls-2" d="M19.25,33.84c0-.05.07-.05.11,0Z"/><path class="cls-2" d="M19.56,33.84c0-.05.07-.05.1,0Z"/><path class="cls-2" d="M19.87,33.84c0-.05.07-.05.1,0Z"/><path class="cls-2" d="M20.17,33.84c0-.05.07-.05.11,0Z"/><path class="cls-2" d="M20.48,33.84c0-.05.07-.05.11,0Z"/><path class="cls-2" d="M20.79,33.84c0-.05.07-.05.1,0Z"/><path class="cls-2" d="M21.09,33.84c0-.05.07-.05.11,0Z"/><path class="cls-2" d="M21.4,33.84c0-.05.07-.05.11,0Z"/><path class="cls-2" d="M21.71,33.84c0-.05.07-.05.1,0Z"/><path class="cls-2" d="M22,33.84c0-.05.07-.05.1,0Z"/><path class="cls-2" d="M22.32,33.84c0-.05.07-.05.11,0Z"/><path class="cls-2" d="M22.63,33.84c0-.05.07-.05.11,0Z"/><path class="cls-2" d="M22.94,33.84c0-.05.07-.05.1,0Z"/><path class="cls-2" d="M23.25,33.84c0-.05.07-.05.1,0Z"/><path class="cls-2" d="M23.55,33.84c0-.05.07-.05.11,0Z"/><path class="cls-2" d="M23.86,33.84c0-.05.07-.05.11,0Z"/><path class="cls-2" d="M24.17,33.84c0-.05.07-.05.1,0Z"/><path class="cls-2" d="M24.47,33.84c0-.05.07-.05.11,0Z"/><path class="cls-2" d="M24.78,33.84c0-.05.07-.05.11,0Z"/><path class="cls-2" d="M25.09,33.84c0-.05.07-.05.1,0Z"/><path class="cls-2" d="M25.4,33.84c0-.05.07-.05.1,0Z"/><path class="cls-2" d="M25.7,33.84c0-.05.07-.05.11,0Z"/><path class="cls-2" d="M26,33.84c0-.05.07-.05.11,0Z"/><path class="cls-2" d="M26.32,33.84c0-.05.07-.05.1,0Z"/><path class="cls-2" d="M26.62,33.84c0-.05.08-.05.11,0Z"/><path class="cls-2" d="M26.93,33.84c0-.05.07-.05.11,0Z"/><path class="cls-2" d="M27.24,33.84c0-.05.07-.05.1,0Z"/><path class="cls-2" d="M27.55,33.84c0-.05.07-.05.1,0Z"/><path class="cls-2" d="M27.85,33.84c0-.05.07-.05.11,0Z"/><path class="cls-2" d="M28.16,33.84c0-.05.07-.05.11,0Z"/><path class="cls-2" d="M28.47,33.84c0-.05.07-.05.1,0Z"/><path class="cls-2" d="M28.78,33.84c0-.05.07-.05.1,0Z"/><path class="cls-2" d="M29.08,33.84c0-.05.07-.05.11,0Z"/><path class="cls-2" d="M29.39,33.84c0-.05.07-.05.11,0Z"/><path class="cls-2" d="M29.7,33.84c0-.05.07-.05.1,0Z"/><path class="cls-2" d="M30,33.84c0-.05.07-.05.11,0Z"/><path class="cls-2" d="M11.88,33.84c0-.05.07-.05.1,0Z"/><path class="cls-2" d="M30.82,33.84c0-.05.07-.05.11,0Z"/><path class="cls-2" d="M11.57,33.84c0-.05.07-.05.11,0Z"/><path class="cls-2" d="M11.26,33.84c0-.05.07-.05.11,0Z"/><path class="cls-2" d="M10.65,33.84c0-.05.07-.05.1,0Z"/><path class="cls-2" d="M10.34,33.84c0-.05.07-.05.11,0Z"/><path class="cls-2" d="M10,33.84c0-.05.07-.05.11,0Z"/><path class="cls-2" d="M9.73,33.84c0-.05.07-.05.1,0Z"/><path class="cls-2" d="M9.42,33.84c0-.05.07-.05.11,0Z"/><path class="cls-2" d="M9.11,33.84c0-.05.07-.05.11,0Z"/><path class="cls-2" d="M8.81,33.84c0-.05.07-.05.1,0Z"/><path class="cls-2" d="M8.5,33.84c0-.05.07-.05.1,0Z"/><path class="cls-2" d="M8.19,33.84c0-.05.07-.05.11,0Z"/><path class="cls-2" d="M7.88,33.84c0-.05.07-.05.11,0Z"/><path class="cls-2" d="M7.58,33.84c0-.05.07-.05.1,0Z"/><path class="cls-2" d="M7.27,33.84c0-.05.07-.05.1,0Z"/><path class="cls-2" d="M11,33.84c0-.05.07-.05.1,0Z"/><path class="cls-2" d="M174.4,33.48h8.19c-.11.11-.26.07-.39.07h-7.36C174.69,33.56,174.53,33.61,174.4,33.48Z"/><path class="cls-2" d="M197.55,33.49h5.32a.54.54,0,0,1-.39.07h-4.54C197.81,33.56,197.67,33.6,197.55,33.49Z"/><path class="cls-2" d="M195.09,33.49h2.25A7.08,7.08,0,0,1,195.09,33.49Z"/><path class="cls-2" d="M192.64,33.49h2.24A7,7,0,0,1,192.64,33.49Z"/><path class="cls-2" d="M190.18,33.49h2.24A7,7,0,0,1,190.18,33.49Z"/><path class="cls-2" d="M187.72,33.49H190A7,7,0,0,1,187.72,33.49Z"/><path class="cls-2" d="M185.26,33.49h2.25A7.08,7.08,0,0,1,185.26,33.49Z"/><path class="cls-2" d="M182.8,33.49h2.25A7.08,7.08,0,0,1,182.8,33.49Z"/><path class="cls-2" d="M33.92,33.23a4.43,4.43,0,0,1,1.36,0A5.16,5.16,0,0,1,33.92,33.23Z"/><path class="cls-2" d="M22.14,33.23a.72.72,0,0,1,.48,0A.62.62,0,0,1,22.14,33.23Z"/><path class="cls-2" d="M22.86,33.23a.66.66,0,0,1,.48,0A.62.62,0,0,1,22.86,33.23Z"/><path class="cls-2" d="M7.49,33.23a.75.75,0,0,1,.49,0A.64.64,0,0,1,7.49,33.23Z"/><path class="cls-2" d="M24,33.23a.75.75,0,0,1,.49,0A.64.64,0,0,1,24,33.23Z"/><path class="cls-2" d="M24.7,33.23a.66.66,0,0,1,.48,0A.62.62,0,0,1,24.7,33.23Z"/><path class="cls-2" d="M8.21,33.23a.69.69,0,0,1,.49,0A.64.64,0,0,1,8.21,33.23Z"/><path class="cls-2" d="M25.83,33.23a.72.72,0,0,1,.48,0A.62.62,0,0,1,25.83,33.23Z"/><path class="cls-2" d="M26.54,33.23a.69.69,0,0,1,.49,0A.64.64,0,0,1,26.54,33.23Z"/><path class="cls-2" d="M10,33.23a.69.69,0,0,1,.49,0A.64.64,0,0,1,10,33.23Z"/><path class="cls-2" d="M27.67,33.23a.72.72,0,0,1,.48,0A.62.62,0,0,1,27.67,33.23Z"/><path class="cls-2" d="M28.39,33.23a.66.66,0,0,1,.48,0A.62.62,0,0,1,28.39,33.23Z"/><path class="cls-2" d="M11.08,33.23a.72.72,0,0,1,.48,0A.62.62,0,0,1,11.08,33.23Z"/><path class="cls-2" d="M29.51,33.23a.75.75,0,0,1,.49,0A.64.64,0,0,1,29.51,33.23Z"/><path class="cls-2" d="M30.23,33.23a.66.66,0,0,1,.48,0A.62.62,0,0,1,30.23,33.23Z"/><path class="cls-2" d="M11.8,33.23a.66.66,0,0,1,.48,0A.62.62,0,0,1,11.8,33.23Z"/><path class="cls-2" d="M31.36,33.23a.72.72,0,0,1,.48,0A.62.62,0,0,1,31.36,33.23Z"/><path class="cls-2" d="M32.07,33.23a.69.69,0,0,1,.49,0A.64.64,0,0,1,32.07,33.23Z"/><path class="cls-2" d="M12.92,33.23a.75.75,0,0,1,.49,0A.64.64,0,0,1,12.92,33.23Z"/><path class="cls-2" d="M33.2,33.23a.72.72,0,0,1,.48,0A.62.62,0,0,1,33.2,33.23Z"/><path class="cls-2" d="M13.64,33.23a.66.66,0,0,1,.48,0A.62.62,0,0,1,13.64,33.23Z"/><path class="cls-2" d="M21,33.23a.69.69,0,0,1,.49,0A.64.64,0,0,1,21,33.23Z"/><path class="cls-2" d="M20.3,33.23a.72.72,0,0,1,.48,0A.62.62,0,0,1,20.3,33.23Z"/><path class="cls-2" d="M14.76,33.23a.75.75,0,0,1,.49,0A.64.64,0,0,1,14.76,33.23Z"/><path class="cls-2" d="M19.17,33.23a.66.66,0,0,1,.48,0A.62.62,0,0,1,19.17,33.23Z"/><path class="cls-2" d="M18.45,33.23a.75.75,0,0,1,.49,0A.64.64,0,0,1,18.45,33.23Z"/><path class="cls-2" d="M15.48,33.23a.69.69,0,0,1,.49,0A.64.64,0,0,1,15.48,33.23Z"/><path class="cls-2" d="M17.33,33.23a.66.66,0,0,1,.48,0A.62.62,0,0,1,17.33,33.23Z"/><path class="cls-2" d="M16.61,33.23a.72.72,0,0,1,.48,0A.62.62,0,0,1,16.61,33.23Z"/><path class="cls-2" d="M8.93,33.23a.5.5,0,0,1,.38,0A.39.39,0,0,1,8.93,33.23Z"/><path class="cls-2" d="M16.2,33.23h.18A.12.12,0,0,1,16.2,33.23Z"/><path class="cls-2" d="M18,33.23h.18A.12.12,0,0,1,18,33.23Z"/><path class="cls-2" d="M19.88,33.23h.19A.13.13,0,0,1,19.88,33.23Z"/><path class="cls-2" d="M14.35,33.23h.19A.13.13,0,0,1,14.35,33.23Z"/><path class="cls-2" d="M21.73,33.23h.18A.12.12,0,0,1,21.73,33.23Z"/><path class="cls-2" d="M32.79,33.23H33A.12.12,0,0,1,32.79,33.23Z"/><path class="cls-2" d="M12.51,33.23h.18A.12.12,0,0,1,12.51,33.23Z"/><path class="cls-2" d="M30.94,33.23h.19A.13.13,0,0,1,30.94,33.23Z"/><path class="cls-2" d="M29.1,33.23h.18A.12.12,0,0,1,29.1,33.23Z"/><path class="cls-2" d="M10.67,33.23h.18A.12.12,0,0,1,10.67,33.23Z"/><path class="cls-2" d="M27.26,33.23h.18A.12.12,0,0,1,27.26,33.23Z"/><path class="cls-2" d="M9.54,33.23h.18A.12.12,0,0,1,9.54,33.23Z"/><path class="cls-2" d="M25.41,33.23h.19A.13.13,0,0,1,25.41,33.23Z"/><path class="cls-2" d="M23.57,33.23h.18A.12.12,0,0,1,23.57,33.23Z"/><path class="cls-2" d="M214,94.43a8.86,8.86,0,0,1,1.22,1.79c-1,.2-1,.18-1.46-.64a1.77,1.77,0,0,0-.8-1c-.41-.18-.55-.09-.55.35a4.82,4.82,0,0,0,0,.76c.1.55-.18.62-.62.57-.22,0-.3-.08-.29-.3,0-1.22,0-2.45,0-3.68,0-.27.14-.3.35-.3h1.69c.82,0,1.3.3,1.42.89S214.8,94.07,214,94.43Zm-1-.59a5.12,5.12,0,0,0,.56,0,.52.52,0,0,0,.49-.5.5.5,0,0,0-.44-.54,3.73,3.73,0,0,0-1,0c-.06,0-.17,0-.17.07a3.42,3.42,0,0,0,0,1C212.49,94,212.8,93.79,213,93.84Z"/></g></g></svg>